<svg width="1000" height="1000" xmlns="http://www.w3.org/2000/svg" version="1.1" xml:space="preserve">
 <g>
  <title>Layer 1</title>
  <path id="XMLID_46_" class="st2" d="m675.2,218.9c-55.7,-83.8 -265.5,-64.2 -283.5,-9.4c-7.9,24.2 26.9,39.4 17.7,68c-10.8,33.6 -63.6,27.6 -154.9,96.2c-15.5,11.7 -110,82.6 -109,177.9c0.9,88.9 74.5,175.9 154.3,192.8c81.7,17.3 113.5,-50.2 196.4,-33.9c103.1,20.4 115.3,133.5 177.7,133.5c120.9,0.1 246.7,-427 160.9,-482.5c-33.9,-21.9 -87.9,22.6 -125.8,-9.4c-36.6,-30.8 -2.3,-85.9 -33.8,-133.2z" fill="#E4EFEF"/>
  <path id="XMLID_47_" class="st2" d="m431.4,763.7c-13.6,14.9 -5,39.9 12.7,53.9c14.6,11.6 39.2,18.7 56.6,10.2c21.7,-10.5 23.9,-41.1 4.3,-59.8c-20,-19.2 -58.2,-21.3 -73.6,-4.3z" fill="#E4EFEF"/>
  <path id="XMLID_48_" class="st2" d="m293,229.7c-17.1,4.7 -21.6,52.6 -10,62c31.5,25.4 53.6,0.7 40,-34c-6.2,-15.9 -19.3,-31 -30,-28z" fill="#E4EFEF"/>
  <path id="XMLID_50_" class="st2" d="m734.2,265.8c-17.1,1.9 -21.6,21 -10,24.8c31.5,10.1 53.6,0.3 40,-13.6c-6.2,-6.3 -19.3,-12.3 -30,-11.2z" fill="#E4EFEF"/>
  <path id="XMLID_15_" class="st3" d="m367.9,670.1c0,0 -8.1,9.2 34.7,51.9c0,-16.5 -5,-35.2 17.8,-42.4c-27.4,-3.7 -52.5,-9.5 -52.5,-9.5z" fill="none" stroke="#272130" stroke-width="6" stroke-linecap="round" stroke-linejoin="round" stroke-miterlimit="10"/>
  <path id="XMLID_107_" class="st1" d="m367.9,670.1c0,0 -8.1,9.2 34.7,51.9c0,-16.5 -5,-35.2 17.8,-42.4c-27.4,-3.7 -52.5,-9.5 -52.5,-9.5z" fill="#372E42"/>
  <path id="XMLID_106_" class="st1" d="m567.4,657.6c0,0 32.6,11.4 47.6,11.4s27,-5.7 27,-5.7l-15,-5.7c22,0 38.5,-16.6 38.5,-16.6l-17.5,-4c21.5,-3.7 31,-26 31,-26c-4,0 -32.6,-4.6 -32.6,-11.3c-25.8,25.8 -65.9,52.6 -79,57.9z" fill="#372E42"/>
  <path id="XMLID_183_" class="st4" d="m646.4,599.7c-25.8,25.8 -65.9,52.6 -79,57.9c0,0 22.9,8 39.1,10.6c2.9,-3.6 5.6,-6.8 7.3,-8.5c5.2,-5.2 26.9,-8.3 26.9,-14.5s-5.3,-9.3 7.4,-16.4s11.4,-12.9 11.4,-12.9l1.4,-8c-7.4,-2.1 -14.5,-4.9 -14.5,-8.2z" opacity="0.83" fill="#2D2638"/>
  <path id="XMLID_41_" class="st5" d="m591.9,645.2c0,0 9.7,10.9 16.7,10.9" fill="none" stroke="#272130" stroke-width="4" stroke-linecap="round" stroke-linejoin="round" stroke-miterlimit="10"/>
  <path id="XMLID_42_" class="st5" d="m632.9,645.2c-12.7,0 -19.1,-14.4 -19.1,-14.4" fill="none" stroke="#272130" stroke-width="4" stroke-linecap="round" stroke-linejoin="round" stroke-miterlimit="10"/>
  <path id="XMLID_43_" class="st5" d="m632.9,620c0,0 3.7,0 15.7,0" fill="none" stroke="#272130" stroke-width="4" stroke-linecap="round" stroke-linejoin="round" stroke-miterlimit="10"/>
  <path id="XMLID_19_" class="st3" d="m567.4,657.6c0,0 32.6,11.4 47.6,11.4s27,-5.7 27,-5.7l-15,-5.7c22,0 38.5,-16.6 38.5,-16.6l-17.5,-4c21.5,-3.7 31,-26 31,-26c-4,0 -32.6,-4.6 -32.6,-11.3c-25.8,25.8 -65.9,52.6 -79,57.9z" fill="none" stroke="#272130" stroke-width="6" stroke-linecap="round" stroke-linejoin="round" stroke-miterlimit="10"/>
  <ellipse id="XMLID_68_" class="st6" cx="301.1" cy="403.5" rx="33" ry="36" fill="#FFFFFF"/>
  <ellipse id="XMLID_129_" class="st7" cx="290.4" cy="406.8" rx="11.5" ry="11.8" fill="#1E1826"/>
  <ellipse id="XMLID_122_" class="st6" cx="287.6" cy="402.8" rx="5.1" ry="5.2" fill="#FFFFFF"/>
  <ellipse id="XMLID_71_" class="st6" cx="293.3" cy="413" rx="1.9" ry="1.9" fill="#FFFFFF"/>
  <ellipse id="XMLID_28_" class="st8" cx="301.1" cy="403.5" rx="33" ry="36" fill="none" stroke="#204751" stroke-width="6" stroke-linecap="round" stroke-linejoin="round" stroke-miterlimit="10"/>
  <path id="XMLID_70_" class="st1" d="m471.6,357.7c0,0 30,-55.6 106.5,-55.6c-10.5,10.5 -10.5,21 -10.5,21s28.1,-10.8 52.5,-3c-16.5,16.5 -16.5,25.5 -16.5,25.5c16.5,-16.5 51.8,4.7 57.9,10.9c-32.8,12 -23.3,13.9 -23.3,13.9s19.8,-0.1 38.7,18.8c-19.2,5.9 -41.2,14.4 -37.8,38.9c-20.4,-18.9 -22.1,-35.8 -167.5,-70.4z" fill="#372E42"/>
  <path id="XMLID_174_" class="st4" d="m648.2,402.6l-7.4,-12.7c0,0 -18,-7 -26.9,-15.9s-13.3,-10.3 -21.9,-18.9c-8.6,-8.6 -17.9,-10.4 -29.4,-10.4s-22,-11.1 -27.6,-16.7c-2.8,-2.8 -18.5,-2.8 -33.5,-2.1c-20.8,15.1 -29.8,31.8 -29.8,31.8c145.3,34.6 147,51.5 167.3,70.3c-1.6,-11.5 2.5,-19.5 9.2,-25.4z" opacity="0.83" fill="#2D2638"/>
  <path id="XMLID_37_" class="st5" d="m512.6,361.4c0,0 18.6,-24.3 37.1,-33.4" fill="none" stroke="#272130" stroke-width="4" stroke-linecap="round" stroke-linejoin="round" stroke-miterlimit="10"/>
  <path id="XMLID_38_" class="st5" d="m542.5,367.5c0,0 15.9,-18.6 49.5,-30.5" fill="none" stroke="#272130" stroke-width="4" stroke-linecap="round" stroke-linejoin="round" stroke-miterlimit="10"/>
  <path id="XMLID_39_" class="st5" d="m574.2,381.7c0,0 19.6,-22.7 53.4,-24" fill="none" stroke="#272130" stroke-width="4" stroke-linecap="round" stroke-linejoin="round" stroke-miterlimit="10"/>
  <path id="XMLID_40_" class="st5" d="m600.9,398.1c0,0 28.2,-16.4 47.7,-16.4" fill="none" stroke="#272130" stroke-width="4" stroke-linecap="round" stroke-linejoin="round" stroke-miterlimit="10"/>
  <path id="XMLID_21_" class="st3" d="m471.6,357.7c0,0 30,-55.6 106.5,-55.6c-10.5,10.5 -10.5,21 -10.5,21s28.1,-10.8 52.5,-3c-16.5,16.5 -16.5,25.5 -16.5,25.5c16.5,-16.5 51.8,4.7 57.9,10.9c-32.8,12 -23.3,13.9 -23.3,13.9s19.8,-0.1 38.7,18.8c-19.2,5.9 -41.2,14.4 -37.8,38.9c-20.4,-18.9 -22.1,-35.8 -167.5,-70.4z" fill="none" stroke="#272130" stroke-width="6" stroke-linecap="round" stroke-linejoin="round" stroke-miterlimit="10"/>
  <path id="XMLID_93_" class="st1" d="m659.7,479.7c0,0 15.3,13.4 39.3,5s84.7,-72.4 129.3,-61c0,0 -23.3,20.7 -18,49.3c5.3,28.7 -14,51.3 -14,51.3s16,10.7 0,26.7s-42.3,11.7 -39.3,33s18.7,22.3 22,41s-4,60.7 16,70c0,0 -21.3,39.3 -82,-74.7c-28,-53.1 -35.3,-61.3 -53.3,-61.3c-6,-16 0,-79.3 0,-79.3z" fill="#372E42"/>
  <path id="XMLID_172_" class="st4" d="m659.7,479.7c0,0 -6,63.3 0,79.3c18,0 25.3,8.2 53.3,61.3c0.1,0.2 0.2,0.4 0.3,0.6c6.8,-17.2 7.3,-52 7.3,-63.6c0,-15.7 18.2,-23.8 22,-46c2.2,-12.8 -5.4,-32.3 -12.3,-46.6c-12.9,9.4 -23.9,17.4 -31.4,20c-23.9,8.4 -39.2,-5 -39.2,-5z" opacity="0.83" fill="#2D2638"/>
  <path id="XMLID_110_" class="st5" d="m676.8,513.4c0,0 24.3,5.6 57.3,-10.3s39,-33.4 54,-33.4" fill="none" stroke="#272130" stroke-width="4" stroke-linecap="round" stroke-linejoin="round" stroke-miterlimit="10"/>
  <path id="XMLID_1_" class="st5" d="m675.8,533.7c0,0 26.5,0 56.7,0c30.2,0 49.1,-9.2 49.1,-9.2" fill="none" stroke="#272130" stroke-width="4" stroke-linecap="round" stroke-linejoin="round" stroke-miterlimit="10"/>
  <path id="XMLID_35_" class="st5" d="m675.8,546.6c0,0 38.9,-0.6 66.9,21.4" fill="none" stroke="#272130" stroke-width="4" stroke-linecap="round" stroke-linejoin="round" stroke-miterlimit="10"/>
  <path id="XMLID_36_" class="st5" d="m671.3,554c0,0 55.4,15.1 86.9,102.1" fill="none" stroke="#272130" stroke-width="4" stroke-linecap="round" stroke-linejoin="round" stroke-miterlimit="10"/>
  <path id="XMLID_20_" class="st3" d="m659.7,479.7c0,0 15.3,13.4 39.3,5s84.7,-72.4 129.3,-61c0,0 -23.3,20.7 -18,49.3c5.3,28.7 -14,51.3 -14,51.3s16,10.7 0,26.7s-42.3,11.7 -39.3,33s18.7,22.3 22,41s-4,60.7 16,70c0,0 -21.3,39.3 -82,-74.7c-28,-53.1 -35.3,-61.3 -53.3,-61.3c-6,-16 0,-79.3 0,-79.3z" fill="none" stroke="#272130" stroke-width="6" stroke-linecap="round" stroke-linejoin="round" stroke-miterlimit="10"/>
  <path id="XMLID_62_" class="st9" d="m449.8,355.1c-9.3,0 -18.5,0.4 -27.5,1.2l1.2,0.2c-1.2,0 -2.4,0 -3.6,0c-9.2,0.9 -18.2,2.1 -26.9,3.8l0,315.7c18.2,3.4 37.2,5.2 56.8,5.2c125.4,0 227,-73 227,-163s-101.6,-163.1 -227,-163.1z" fill="#4DC1C4"/>
  <path id="XMLID_181_" class="st10" d="m524.8,364.2c72.2,27.3 121.5,81.7 121.5,144.3c0,90 -109,167.2 -234.4,167.2c-8.9,0 -3.6,2.1 -12.2,1.4l-6.7,-1.2c18.2,3.4 37.2,5.2 56.8,5.2c125.4,0 227,-73 227,-163c0,-71.2 -63.5,-131.7 -152,-153.9z" fill="#23AFAB"/>
  <path id="XMLID_32_" class="st8" d="m449.8,355.1c-9.3,0 -18.5,0.4 -27.5,1.2l1.2,0.2c-1.2,0 -2.4,0 -3.6,0c-9.2,0.9 -18.2,2.1 -26.9,3.8l0,315.7c18.2,3.4 37.2,5.2 56.8,5.2c125.4,0 227,-73 227,-163s-101.6,-163.1 -227,-163.1z" fill="none" stroke="#204751" stroke-width="6" stroke-linecap="round" stroke-linejoin="round" stroke-miterlimit="10"/>
  <path id="XMLID_65_" class="st9" d="m420.4,356.5c0,0 0,0 0,0c-14.1,1.3 -27.6,3.5 -40.7,6.5c-57.8,17.8 -104.9,75.3 -104.9,137l-28.4,-3c-12.5,-1.3 -23.5,8.3 -23.5,20.9c0,0.1 0,0.2 0,0.2c0,82.8 86.1,151.3 197.5,161.6c32,-44.1 51.2,-100.4 51.2,-161.6c0,-61.3 -19.2,-117.5 -51.2,-161.6z" fill="#4DC1C4"/>
  <path id="XMLID_60_" class="st10" d="m293.3,476.9c0,0 40.9,17.2 76.9,17.2s47.4,-2.7 51.7,-16.6c0,0 2.1,9.3 -1.6,16.6s-18.3,29.7 -93.8,14.3c-75.4,-10.9 -47.6,-8 -47.6,-8s-1.7,-29.4 14.4,-23.5z" fill="#23AFAB"/>
  <path id="XMLID_34_" class="st10" d="m313.6,508.5c0,0 34,16.5 68.6,16.5c20.2,0 36.7,-7.2 43.5,-11.6c20.5,-13.4 6.6,-44.1 0,-33.7c-3.7,5.8 -9.3,21.4 -13,25.2s-55.9,8.5 -62.5,8.5c-6.6,0 -36.6,-4.9 -36.6,-4.9z" fill="#23AFAB"/>
  <g id="XMLID_177_">
   <path id="XMLID_179_" class="st10" d="m294.8,500c0,-61.6 47.1,-119.1 104.9,-137c7.3,-1.7 14.7,-3.1 22.2,-4.3c-0.5,-0.8 -1.1,-1.5 -1.6,-2.3c0,0 0,0 -0.1,0c-14,1.3 -27.6,3.5 -40.7,6.6c-57.1,17.6 -103.9,74 -104.9,134.8l20.2,2.2z" fill="#23AFAB"/>
   <path id="XMLID_180_" class="st10" d="m242.9,518.1c0,-0.1 0,-0.2 0,-0.2c0,-9.2 6,-16.8 14,-19.7l-10.6,-1.1c-12.5,-1.3 -23.5,8.3 -23.5,20.9c0,0.1 0,0.2 0,0.2c0,82.8 86.1,151.3 197.5,161.6c0.5,-0.8 1.1,-1.5 1.6,-2.3c-102.2,-15.9 -179,-81.2 -179,-159.4z" fill="#23AFAB"/>
  </g>
  <path id="XMLID_33_" class="st8" d="m420.4,356.5c0,0 0,0 0,0c-14.1,1.3 -27.6,3.5 -40.7,6.5c-57.8,17.8 -104.9,75.3 -104.9,137l-28.4,-3c-12.5,-1.3 -23.5,8.3 -23.5,20.9c0,0.1 0,0.2 0,0.2c0,82.8 86.1,151.3 197.5,161.6c32,-44.1 51.2,-100.4 51.2,-161.6c0,-61.3 -19.2,-117.5 -51.2,-161.6z" fill="none" stroke="#204751" stroke-width="6" stroke-linecap="round" stroke-linejoin="round" stroke-miterlimit="10"/>
  <path id="XMLID_24_" class="st11" d="m353.7,511.3c-6.3,-0.6 -12.1,-1.3 -17.3,-2c-0.3,-1.7 -0.4,-3.4 -0.4,-5.1c0,-12.7 7.3,-23.5 17.3,-27.2c-3,4.7 -4.8,10.6 -4.8,16.9c0,6.5 1.9,12.6 5.2,17.4z" fill="#FFFFFF" stroke="#FFFFFF" stroke-width="4" stroke-linecap="round" stroke-linejoin="round" stroke-miterlimit="10"/>
  <path id="XMLID_23_" class="st11" d="m288.5,503.1c-8.5,-1.1 -16.4,-2.2 -23.4,-3.3c-0.3,-2.3 -0.4,-4.6 -0.4,-7c0.5,-17.3 10.7,-31.7 24.5,-36.5c-4.3,6.3 -7,14.2 -7.2,22.9c-0.2,8.9 2.2,17.2 6.5,23.9z" fill="#FFFFFF" stroke="#FFFFFF" stroke-width="4" stroke-linecap="round" stroke-linejoin="round" stroke-miterlimit="10"/>
  <path id="XMLID_30_" class="st8" d="m436,489.7c0,-9.3 -26,-20 -26,-20" fill="none" stroke="#204751" stroke-width="6" stroke-linecap="round" stroke-linejoin="round" stroke-miterlimit="10"/>
  <ellipse id="XMLID_66_" class="st6" cx="350.2" cy="399.7" rx="40" ry="42" fill="#FFFFFF"/>
  <ellipse id="XMLID_29_" class="st8" cx="350.2" cy="399.7" rx="40" ry="42" fill="none" stroke="#204751" stroke-width="6" stroke-linecap="round" stroke-linejoin="round" stroke-miterlimit="10"/>
  <ellipse id="XMLID_27_" class="st7" cx="347" cy="411.5" rx="16" ry="16.5" fill="#1E1826"/>
  <ellipse id="XMLID_67_" class="st6" cx="343.1" cy="406" rx="7.1" ry="7.3" fill="#FFFFFF"/>
  <ellipse id="XMLID_69_" class="st6" cx="351.1" cy="420.3" rx="2.6" ry="2.7" fill="#FFFFFF"/>
  <path id="XMLID_26_" class="st11" d="m325.6,456.5c0.3,-0.3 0.6,-0.6 0.9,-0.9c-4.2,2 -8.3,4.7 -11.8,7.9c-13.3,12.1 -17.2,29 -11.2,42.6l17.6,2.4c-10.8,-16.2 -9.6,-37.3 4.5,-52z" fill="#FFFFFF" stroke="#FFFFFF" stroke-width="4" stroke-linecap="round" stroke-linejoin="round" stroke-miterlimit="10"/>
  <path id="XMLID_25_" class="st11" d="m378.7,490.2c0.1,-0.1 0.2,-0.3 0.4,-0.4c-1.8,1.1 -3.5,2.4 -4.9,4c-5.1,5.8 -5.1,13.1 -0.8,18.6l8.8,0.1c-6.9,-6.4 -8.7,-15.3 -3.5,-22.3z" fill="#FFFFFF" stroke="#FFFFFF" stroke-width="4" stroke-linecap="round" stroke-linejoin="round" stroke-miterlimit="10"/>
  <path id="XMLID_92_" class="st1" d="m523,532.3c0,0 -45.2,39.7 -32.7,79.3c0,0 6.7,19.3 28.7,22.7c21.3,3.2 25.7,-7 30.7,-12c-20.2,-8.1 -11.2,-34.3 -6.7,-38.9c-9.3,0 -20,-7.9 -23.8,-16.4c-3.7,-8.5 -1.6,-16.6 3.8,-34.7z" fill="#372E42"/>
  <path id="XMLID_160_" class="st4" d="m490.3,611.7c0,0 6.4,18.5 27.4,22.4c-10.2,-24.3 -14.5,-54.8 -16.3,-76.1c-9.5,14.8 -17.2,34.2 -11.1,53.7z" opacity="0.83" fill="#2D2638"/>
  <path id="XMLID_17_" class="st3" d="m523,532.3c0,0 -45.2,39.7 -32.7,79.3c0,0 6.7,19.3 28.7,22.7c21.3,3.2 25.7,-7 30.7,-12c-20.2,-8.1 -11.2,-34.3 -6.7,-38.9c-9.3,0 -20,-7.9 -23.8,-16.4c-3.7,-8.5 -1.6,-16.6 3.8,-34.7z" fill="none" stroke="#272130" stroke-width="6" stroke-linecap="round" stroke-linejoin="round" stroke-miterlimit="10"/>
  <path id="XMLID_31_" class="st8" d="m425.7,479.7c0,0 1.2,37.6 -52.7,33.4c-60.9,-4.8 -117.2,-15.1 -117.2,-15.1" fill="none" stroke="#204751" stroke-width="6" stroke-linecap="round" stroke-linejoin="round" stroke-miterlimit="10"/>
  <circle id="XMLID_109_" class="st12" cx="343.8" cy="607.2" r="23.6" opacity="0.78" fill="#6D87AC"/>
  <circle id="XMLID_118_" class="st12" cx="402.6" cy="419.2" r="7.4" opacity="0.78" fill="#6D87AC"/>
  <circle id="XMLID_125_" class="st12" cx="421.2" cy="391.3" r="11.1" opacity="0.78" fill="#6D87AC"/>
  <circle id="XMLID_158_" class="st12" cx="412.7" cy="530.6" r="5.6" opacity="0.78" fill="#6D87AC"/>
  <circle id="XMLID_120_" class="st13" cx="422" cy="435.8" r="3.7" opacity="0.39" fill="#6D87AC"/>
  <circle id="XMLID_112_" class="st12" cx="518.9" cy="423" r="23.6" opacity="0.78" fill="#6D87AC"/>
  <circle id="XMLID_159_" class="st13" cx="591.9" cy="461.4" r="29.4" opacity="0.39" fill="#6D87AC"/>
  <circle id="XMLID_156_" class="st12" cx="645" cy="512.4" r="12" opacity="0.78" fill="#6D87AC"/>
  <circle id="XMLID_111_" class="st12" cx="395.3" cy="628.8" r="8.8" opacity="0.78" fill="#6D87AC"/>
  <path id="XMLID_162_" class="st5" d="m500,589.7c0,0 10,-6.3 14.3,-10.7" fill="none" stroke="#272130" stroke-width="4" stroke-linecap="round" stroke-linejoin="round" stroke-miterlimit="10"/>
  <path id="XMLID_164_" class="st5" d="m500,602.3c0,0 20,-4.3 25,-9.3" fill="none" stroke="#272130" stroke-width="4" stroke-linecap="round" stroke-linejoin="round" stroke-miterlimit="10"/>
  <path id="XMLID_168_" class="st5" d="m504.3,611.7c0,0 13.3,5.3 23.3,8.3" fill="none" stroke="#272130" stroke-width="4" stroke-linecap="round" stroke-linejoin="round" stroke-miterlimit="10"/>
  <path id="XMLID_170_" class="st5" d="m382.2,679.7c0,0 5.9,15.3 13,18.6" fill="none" stroke="#272130" stroke-width="4" stroke-linecap="round" stroke-linejoin="round" stroke-miterlimit="10"/>
 </g>

</svg>